<mxfile host="Electron" agent="Mozilla/5.0 (Macintosh; Intel Mac OS X 10_15_7) AppleWebKit/537.36 (KHTML, like Gecko) draw.io/24.7.17 Chrome/128.0.6613.36 Electron/32.0.1 Safari/537.36" scale="2" border="0" version="24.7.17">
  <diagram name="Page-1" id="scwysmYseC3WOdzBoVDK">
    <mxGraphModel dx="1026" dy="1826" grid="1" gridSize="10" guides="1" tooltips="1" connect="1" arrows="1" fold="1" page="1" pageScale="1" pageWidth="827" pageHeight="1169" math="0" shadow="0">
      <root>
        <mxCell id="0" />
        <mxCell id="1" value="Base + NPHC" style="" parent="0" />
        <mxCell id="GMeYK9LKuNp39TBqd5rO-28" value="AWS Account" style="points=[[0,0],[0.25,0],[0.5,0],[0.75,0],[1,0],[1,0.25],[1,0.5],[1,0.75],[1,1],[0.75,1],[0.5,1],[0.25,1],[0,1],[0,0.75],[0,0.5],[0,0.25]];outlineConnect=0;gradientColor=none;html=1;whiteSpace=wrap;fontSize=12;fontStyle=0;container=1;pointerEvents=0;collapsible=0;recursiveResize=0;shape=mxgraph.aws4.group;grIcon=mxgraph.aws4.group_aws_cloud_alt;strokeColor=#232F3E;fillColor=none;verticalAlign=top;align=left;spacingLeft=30;fontColor=#232F3E;dashed=0;" parent="1" vertex="1">
          <mxGeometry width="780" height="830" as="geometry" />
        </mxCell>
        <mxCell id="GMeYK9LKuNp39TBqd5rO-29" value="Main VPC" style="points=[[0,0],[0.25,0],[0.5,0],[0.75,0],[1,0],[1,0.25],[1,0.5],[1,0.75],[1,1],[0.75,1],[0.5,1],[0.25,1],[0,1],[0,0.75],[0,0.5],[0,0.25]];outlineConnect=0;gradientColor=none;html=1;whiteSpace=wrap;fontSize=12;fontStyle=0;container=1;pointerEvents=0;collapsible=0;recursiveResize=0;shape=mxgraph.aws4.group;grIcon=mxgraph.aws4.group_vpc2;strokeColor=#8C4FFF;fillColor=none;verticalAlign=top;align=left;spacingLeft=30;fontColor=#AAB7B8;dashed=0;" parent="GMeYK9LKuNp39TBqd5rO-28" vertex="1">
          <mxGeometry x="160" y="40" width="580" height="760" as="geometry" />
        </mxCell>
        <mxCell id="GMeYK9LKuNp39TBqd5rO-71" value="Subnet&lt;br&gt;&lt;div&gt;Public&lt;/div&gt;" style="points=[[0,0],[0.25,0],[0.5,0],[0.75,0],[1,0],[1,0.25],[1,0.5],[1,0.75],[1,1],[0.75,1],[0.5,1],[0.25,1],[0,1],[0,0.75],[0,0.5],[0,0.25]];outlineConnect=0;gradientColor=none;html=1;whiteSpace=wrap;fontSize=12;fontStyle=0;container=1;pointerEvents=0;collapsible=0;recursiveResize=0;shape=mxgraph.aws4.group;grIcon=mxgraph.aws4.group_security_group;grStroke=0;strokeColor=#7AA116;fillColor=#F2F6E8;verticalAlign=top;align=left;spacingLeft=30;fontColor=#248814;dashed=0;" parent="GMeYK9LKuNp39TBqd5rO-29" vertex="1">
          <mxGeometry x="140" y="30" width="160" height="160" as="geometry" />
        </mxCell>
        <mxCell id="GMeYK9LKuNp39TBqd5rO-2" value="ALB (public)" style="sketch=0;outlineConnect=0;fontColor=#232F3E;gradientColor=none;fillColor=#8C4FFF;strokeColor=none;dashed=0;verticalLabelPosition=bottom;verticalAlign=top;align=center;html=1;fontSize=12;fontStyle=0;aspect=fixed;pointerEvents=1;shape=mxgraph.aws4.application_load_balancer;" parent="GMeYK9LKuNp39TBqd5rO-71" vertex="1">
          <mxGeometry x="32.5" y="40" width="78" height="78" as="geometry" />
        </mxCell>
        <mxCell id="GMeYK9LKuNp39TBqd5rO-69" value="Subnet&lt;div&gt;Private&lt;/div&gt;" style="points=[[0,0],[0.25,0],[0.5,0],[0.75,0],[1,0],[1,0.25],[1,0.5],[1,0.75],[1,1],[0.75,1],[0.5,1],[0.25,1],[0,1],[0,0.75],[0,0.5],[0,0.25]];outlineConnect=0;gradientColor=none;html=1;whiteSpace=wrap;fontSize=12;fontStyle=0;container=1;pointerEvents=0;collapsible=0;recursiveResize=0;shape=mxgraph.aws4.group;grIcon=mxgraph.aws4.group_security_group;grStroke=0;strokeColor=#00A4A6;fillColor=#E6F6F7;verticalAlign=top;align=left;spacingLeft=30;fontColor=#147EBA;dashed=0;" parent="GMeYK9LKuNp39TBqd5rO-29" vertex="1">
          <mxGeometry x="30" y="207" width="510" height="338" as="geometry" />
        </mxCell>
        <mxCell id="t2kGmv1dZUYxPVBPlfz--1" value="ECS Cluster" style="points=[[0,0],[0.25,0],[0.5,0],[0.75,0],[1,0],[1,0.25],[1,0.5],[1,0.75],[1,1],[0.75,1],[0.5,1],[0.25,1],[0,1],[0,0.75],[0,0.5],[0,0.25]];outlineConnect=0;gradientColor=none;html=1;whiteSpace=wrap;fontSize=12;fontStyle=0;container=1;pointerEvents=0;collapsible=0;recursiveResize=0;shape=mxgraph.aws4.group;grIcon=mxgraph.aws4.group_on_premise;strokeColor=#7D8998;fillColor=none;verticalAlign=top;align=left;spacingLeft=30;fontColor=#5A6C86;dashed=0;" parent="GMeYK9LKuNp39TBqd5rO-69" vertex="1">
          <mxGeometry x="30" y="38" width="450" height="262" as="geometry" />
        </mxCell>
        <mxCell id="Eil-E504C6mX8T2deNU5-18" value="&lt;div&gt;&lt;span style=&quot;background-color: initial;&quot;&gt;Chat&lt;/span&gt;&lt;br&gt;&lt;/div&gt;&lt;div&gt;(Chainlit Chat Interface)&lt;/div&gt;" style="sketch=0;outlineConnect=0;fontColor=#232F3E;gradientColor=none;fillColor=#ED7100;strokeColor=none;dashed=0;verticalLabelPosition=bottom;verticalAlign=top;align=center;html=1;fontSize=12;fontStyle=0;aspect=fixed;pointerEvents=1;shape=mxgraph.aws4.ecs_service;" parent="t2kGmv1dZUYxPVBPlfz--1" vertex="1">
          <mxGeometry x="41.5" y="40" width="39" height="48" as="geometry" />
        </mxCell>
        <mxCell id="aVuCtGiwYys72nsZY7OP-1" value="&lt;div&gt;&lt;span style=&quot;color: rgba(0, 0, 0, 0); font-family: monospace; font-size: 0px; text-align: start; background-color: initial;&quot;&gt;%3CmxGraphModel%3E%3Croot%3E%3CmxCell%20id%3D%220%22%2F%3E%3CmxCell%20id%3D%221%22%20parent%3D%220%22%2F%3E%3CmxCell%20id%3D%222%22%20value%3D%22Agency%201%20Deployment%22%20style%3D%22points%3D%5B%5B0%2C0%5D%2C%5B0.25%2C0%5D%2C%5B0.5%2C0%5D%2C%5B0.75%2C0%5D%2C%5B1%2C0%5D%2C%5B1%2C0.25%5D%2C%5B1%2C0.5%5D%2C%5B1%2C0.75%5D%2C%5B1%2C1%5D%2C%5B0.75%2C1%5D%2C%5B0.5%2C1%5D%2C%5B0.25%2C1%5D%2C%5B0%2C1%5D%2C%5B0%2C0.75%5D%2C%5B0%2C0.5%5D%2C%5B0%2C0.25%5D%5D%3BoutlineConnect%3D0%3BgradientColor%3Dnone%3Bhtml%3D1%3BwhiteSpace%3Dwrap%3BfontSize%3D12%3BfontStyle%3D0%3Bcontainer%3D1%3BpointerEvents%3D0%3Bcollapsible%3D0%3BrecursiveResize%3D0%3Bshape%3Dmxgraph.aws4.group%3BgrIcon%3Dmxgraph.aws4.group_on_premise%3BstrokeColor%3D%237D8998%3BfillColor%3Dnone%3BverticalAlign%3Dtop%3Balign%3Dleft%3BspacingLeft%3D30%3BfontColor%3D%235A6C86%3Bdashed%3D0%3B%22%20vertex%3D%221%22%20parent%3D%221%22%3E%3CmxGeometry%20x%3D%22720%22%20y%3D%22680%22%20width%3D%22150%22%20height%3D%22262%22%20as%3D%22geometry%22%2F%3E%3C%2FmxCell%3E%3CmxCell%20id%3D%223%22%20value%3D%22Service%3A%20Chat%20UI%20%26lt%3Bbr%26gt%3B(Chainlit)%22%20style%3D%22sketch%3D0%3BoutlineConnect%3D0%3BfontColor%3D%23232F3E%3BgradientColor%3Dnone%3BfillColor%3D%23ED7100%3BstrokeColor%3Dnone%3Bdashed%3D0%3BverticalLabelPosition%3Dbottom%3BverticalAlign%3Dtop%3Balign%3Dcenter%3Bhtml%3D1%3BfontSize%3D12%3BfontStyle%3D0%3Baspect%3Dfixed%3BpointerEvents%3D1%3Bshape%3Dmxgraph.aws4.ecs_service%3B%22%20vertex%3D%221%22%20parent%3D%222%22%3E%3CmxGeometry%20x%3D%2240%22%20y%3D%2240%22%20width%3D%2239%22%20height%3D%2248%22%20as%3D%22geometry%22%2F%3E%3C%2FmxCell%3E%3CmxCell%20id%3D%224%22%20value%3D%22Service%3A%20Exploration%26lt%3Bbr%26gt%3B(Metabase)%22%20style%3D%22sketch%3D0%3BoutlineConnect%3D0%3BfontColor%3D%23232F3E%3BgradientColor%3Dnone%3BfillColor%3D%23ED7100%3BstrokeColor%3Dnone%3Bdashed%3D0%3BverticalLabelPosition%3Dbottom%3BverticalAlign%3Dtop%3Balign%3Dcenter%3Bhtml%3D1%3BfontSize%3D12%3BfontStyle%3D0%3Baspect%3Dfixed%3BpointerEvents%3D1%3Bshape%3Dmxgraph.aws4.ecs_service%3B%22%20vertex%3D%221%22%20parent%3D%222%22%3E%3CmxGeometry%20x%3D%2240%22%20y%3D%22150%22%20width%3D%2239%22%20height%3D%2248%22%20as%3D%22geometry%22%2F%3E%3C%2FmxCell%3E%3C%2Froot%3E%3C%2FmxGraphModel%3E&lt;/span&gt;Metabase&lt;/div&gt;&lt;div&gt;(DB Adapter &amp;amp; Data Source Manager)&lt;/div&gt;" style="sketch=0;outlineConnect=0;fontColor=#232F3E;gradientColor=none;fillColor=#ED7100;strokeColor=none;dashed=0;verticalLabelPosition=bottom;verticalAlign=top;align=center;html=1;fontSize=12;fontStyle=0;aspect=fixed;pointerEvents=1;shape=mxgraph.aws4.ecs_service;" parent="t2kGmv1dZUYxPVBPlfz--1" vertex="1">
          <mxGeometry x="210" y="40" width="39" height="48" as="geometry" />
        </mxCell>
        <mxCell id="t2kGmv1dZUYxPVBPlfz--7" value="&lt;div&gt;Admin&lt;/div&gt;&lt;div&gt;(Authentication &amp;amp; Metadata Management&lt;/div&gt;" style="sketch=0;outlineConnect=0;fontColor=#232F3E;gradientColor=none;fillColor=#ED7100;strokeColor=none;dashed=0;verticalLabelPosition=bottom;verticalAlign=top;align=center;html=1;fontSize=12;fontStyle=0;aspect=fixed;pointerEvents=1;shape=mxgraph.aws4.ecs_service;" parent="t2kGmv1dZUYxPVBPlfz--1" vertex="1">
          <mxGeometry x="100" y="135" width="39" height="48" as="geometry" />
        </mxCell>
        <mxCell id="t2kGmv1dZUYxPVBPlfz--8" value="Langfuse&lt;div&gt;(Prompt-hosting &amp;amp; Tracing/Logging)&lt;/div&gt;" style="sketch=0;outlineConnect=0;fontColor=#232F3E;gradientColor=none;fillColor=#ED7100;strokeColor=none;dashed=0;verticalLabelPosition=bottom;verticalAlign=top;align=center;html=1;fontSize=12;fontStyle=0;aspect=fixed;pointerEvents=1;shape=mxgraph.aws4.ecs_service;" parent="t2kGmv1dZUYxPVBPlfz--1" vertex="1">
          <mxGeometry x="310" y="135" width="39" height="48" as="geometry" />
        </mxCell>
        <mxCell id="t2kGmv1dZUYxPVBPlfz--12" style="edgeStyle=orthogonalEdgeStyle;rounded=0;orthogonalLoop=1;jettySize=auto;html=1;" parent="GMeYK9LKuNp39TBqd5rO-29" source="GMeYK9LKuNp39TBqd5rO-2" target="t2kGmv1dZUYxPVBPlfz--1" edge="1">
          <mxGeometry relative="1" as="geometry" />
        </mxCell>
        <mxCell id="GMeYK9LKuNp39TBqd5rO-52" value="Subnet&lt;div&gt;Private&lt;/div&gt;" style="points=[[0,0],[0.25,0],[0.5,0],[0.75,0],[1,0],[1,0.25],[1,0.5],[1,0.75],[1,1],[0.75,1],[0.5,1],[0.25,1],[0,1],[0,0.75],[0,0.5],[0,0.25]];outlineConnect=0;gradientColor=none;html=1;whiteSpace=wrap;fontSize=12;fontStyle=0;container=1;pointerEvents=0;collapsible=0;recursiveResize=0;shape=mxgraph.aws4.group;grIcon=mxgraph.aws4.group_security_group;grStroke=0;strokeColor=#00A4A6;fillColor=#E6F6F7;verticalAlign=top;align=left;spacingLeft=30;fontColor=#147EBA;dashed=0;" parent="GMeYK9LKuNp39TBqd5rO-29" vertex="1">
          <mxGeometry x="30" y="560" width="410" height="170" as="geometry" />
        </mxCell>
        <mxCell id="aVuCtGiwYys72nsZY7OP-12" value="RDS PostgreSQL&lt;div&gt;(for Langfuse, Metabase and Admin)&lt;/div&gt;&lt;div&gt;(for Chat, if Chat History feature is enabled)&lt;/div&gt;" style="sketch=0;outlineConnect=0;fontColor=#232F3E;gradientColor=none;fillColor=#C925D1;strokeColor=none;dashed=0;verticalLabelPosition=bottom;verticalAlign=top;align=center;html=1;fontSize=12;fontStyle=0;aspect=fixed;pointerEvents=1;shape=mxgraph.aws4.rds_instance;" parent="GMeYK9LKuNp39TBqd5rO-52" vertex="1">
          <mxGeometry x="93" y="30" width="70" height="70" as="geometry" />
        </mxCell>
        <mxCell id="t2kGmv1dZUYxPVBPlfz--10" value="Elasticache Redis&lt;div&gt;(for Admin)&lt;/div&gt;" style="sketch=0;outlineConnect=0;fontColor=#232F3E;gradientColor=none;fillColor=#C925D1;strokeColor=none;dashed=0;verticalLabelPosition=bottom;verticalAlign=top;align=center;html=1;fontSize=12;fontStyle=0;aspect=fixed;pointerEvents=1;shape=mxgraph.aws4.elasticache_for_redis;" parent="GMeYK9LKuNp39TBqd5rO-52" vertex="1">
          <mxGeometry x="250" y="30" width="78" height="69" as="geometry" />
        </mxCell>
        <mxCell id="t2kGmv1dZUYxPVBPlfz--13" value="OpenID Identity Provider&lt;div&gt;(such as Cognito)&lt;/div&gt;&lt;div&gt;(for Chat, Admin)&lt;/div&gt;&lt;div&gt;(optionally, for Langfuse)&lt;/div&gt;" style="sketch=0;points=[[0,0,0],[0.25,0,0],[0.5,0,0],[0.75,0,0],[1,0,0],[0,1,0],[0.25,1,0],[0.5,1,0],[0.75,1,0],[1,1,0],[0,0.25,0],[0,0.5,0],[0,0.75,0],[1,0.25,0],[1,0.5,0],[1,0.75,0]];outlineConnect=0;fontColor=#232F3E;fillColor=#DD344C;strokeColor=#ffffff;dashed=0;verticalLabelPosition=bottom;verticalAlign=top;align=center;html=1;fontSize=12;fontStyle=0;aspect=fixed;shape=mxgraph.aws4.resourceIcon;resIcon=mxgraph.aws4.cognito;" parent="GMeYK9LKuNp39TBqd5rO-28" vertex="1">
          <mxGeometry x="40" y="40" width="78" height="78" as="geometry" />
        </mxCell>
        <mxCell id="jFujj-T0JA9L9DrS1JL_-8" value="No data is sent to OpenAI; only the database schema" style="text;html=1;align=center;verticalAlign=middle;whiteSpace=wrap;rounded=0;fillColor=#ffe6cc;strokeColor=#d79b00;fontStyle=1;fontColor=#FF0000;" parent="1" vertex="1">
          <mxGeometry x="300" y="-160" width="100" height="70" as="geometry" />
        </mxCell>
        <mxCell id="t2kGmv1dZUYxPVBPlfz--11" style="edgeStyle=orthogonalEdgeStyle;rounded=0;orthogonalLoop=1;jettySize=auto;html=1;" parent="1" source="Eil-E504C6mX8T2deNU5-18" target="GMeYK9LKuNp39TBqd5rO-23" edge="1">
          <mxGeometry relative="1" as="geometry" />
        </mxCell>
        <mxCell id="GMeYK9LKuNp39TBqd5rO-23" value="" style="shape=image;verticalLabelPosition=bottom;labelBackgroundColor=default;verticalAlign=top;aspect=fixed;imageAspect=0;image=data:image/svg+xml,PHN2ZyB4bWxucz0iaHR0cDovL3d3dy53My5vcmcvMjAwMC9zdmciIHZpZXdCb3g9IjAgMCAxMTgwIDMyMCI+PHBhdGggZD0ibTM2Ny40NCAxNTMuODRjMCA1Mi4zMiAzMy42IDg4LjggODAuMTYgODguOHM4MC4xNi0zNi40OCA4MC4xNi04OC44LTMzLjYtODguOC04MC4xNi04OC44LTgwLjE2IDM2LjQ4LTgwLjE2IDg4Ljh6bTEyOS42IDBjMCAzNy40NC0yMC40IDYxLjY4LTQ5LjQ0IDYxLjY4cy00OS40NC0yNC4yNC00OS40NC02MS42OCAyMC40LTYxLjY4IDQ5LjQ0LTYxLjY4IDQ5LjQ0IDI0LjI0IDQ5LjQ0IDYxLjY4eiIvPjxwYXRoIGQ9Im02MTQuMjcgMjQyLjY0YzM1LjI4IDAgNTUuNDQtMjkuNzYgNTUuNDQtNjUuNTJzLTIwLjE2LTY1LjUyLTU1LjQ0LTY1LjUyYy0xNi4zMiAwLTI4LjMyIDYuNDgtMzYuMjQgMTUuODR2LTEzLjQ0aC0yOC44djE2OS4yaDI4Ljh2LTU2LjRjNy45MiA5LjM2IDE5LjkyIDE1Ljg0IDM2LjI0IDE1Ljg0em0tMzYuOTYtNjkuMTJjMC0yMy43NiAxMy40NC0zNi43MiAzMS4yLTM2LjcyIDIwLjg4IDAgMzIuMTYgMTYuMzIgMzIuMTYgNDAuMzJzLTExLjI4IDQwLjMyLTMyLjE2IDQwLjMyYy0xNy43NiAwLTMxLjItMTMuMi0zMS4yLTM2LjQ4eiIvPjxwYXRoIGQ9Im03NDcuNjUgMjQyLjY0YzI1LjIgMCA0NS4xMi0xMy4yIDU0LTM1LjI4bC0yNC43Mi05LjM2Yy0zLjg0IDEyLjk2LTE1LjEyIDIwLjE2LTI5LjI4IDIwLjE2LTE4LjQ4IDAtMzEuNDQtMTMuMi0zMy42LTM0LjhoODguMzJ2LTkuNmMwLTM0LjU2LTE5LjQ0LTYyLjE2LTU1LjkyLTYyLjE2cy02MCAyOC41Ni02MCA2NS41MmMwIDM4Ljg4IDI1LjIgNjUuNTIgNjEuMiA2NS41MnptLTEuNDQtMTA2LjhjMTguMjQgMCAyNi44OCAxMiAyNy4xMiAyNS45MmgtNTcuODRjNC4zMi0xNy4wNCAxNS44NC0yNS45MiAzMC43Mi0yNS45MnoiLz48cGF0aCBkPSJtODIzLjk4IDI0MGgyOC44di03My45MmMwLTE4IDEzLjItMjcuNiAyNi4xNi0yNy42IDE1Ljg0IDAgMjIuMDggMTEuMjggMjIuMDggMjYuODh2NzQuNjRoMjguOHYtODMuMDRjMC0yNy4xMi0xNS44NC00NS4zNi00Mi4yNC00NS4zNi0xNi4zMiAwLTI3LjYgNy40NC0zNC44IDE1Ljg0di0xMy40NGgtMjguOHoiLz48cGF0aCBkPSJtMTAxNC4xNyA2Ny42OC02NS4yOCAxNzIuMzJoMzAuNDhsMTQuNjQtMzkuMzZoNzQuNGwxNC44OCAzOS4zNmgzMC45NmwtNjUuMjgtMTcyLjMyem0xNi44IDM0LjA4IDI3LjM2IDcyaC01NC4yNHoiLz48cGF0aCBkPSJtMTE2My42OSA2OC4xOGgtMzAuNzJ2MTcyLjMyaDMwLjcyeiIvPjxwYXRoIGQ9Im0yOTcuMDYgMTMwLjk3YzcuMjYtMjEuNzkgNC43Ni00NS42Ni02Ljg1LTY1LjQ4LTE3LjQ2LTMwLjQtNTIuNTYtNDYuMDQtODYuODQtMzguNjgtMTUuMjUtMTcuMTgtMzcuMTYtMjYuOTUtNjAuMTMtMjYuODEtMzUuMDQtLjA4LTY2LjEzIDIyLjQ4LTc2LjkxIDU1LjgyLTIyLjUxIDQuNjEtNDEuOTQgMTguNy01My4zMSAzOC42Ny0xNy41OSAzMC4zMi0xMy41OCA2OC41NCA5LjkyIDk0LjU0LTcuMjYgMjEuNzktNC43NiA0NS42NiA2Ljg1IDY1LjQ4IDE3LjQ2IDMwLjQgNTIuNTYgNDYuMDQgODYuODQgMzguNjggMTUuMjQgMTcuMTggMzcuMTYgMjYuOTUgNjAuMTMgMjYuOCAzNS4wNi4wOSA2Ni4xNi0yMi40OSA3Ni45NC01NS44NiAyMi41MS00LjYxIDQxLjk0LTE4LjcgNTMuMzEtMzguNjcgMTcuNTctMzAuMzIgMTMuNTUtNjguNTEtOS45NC05NC41MXptLTEyMC4yOCAxNjguMTFjLTE0LjAzLjAyLTI3LjYyLTQuODktMzguMzktMTMuODguNDktLjI2IDEuMzQtLjczIDEuODktMS4wN2w2My43Mi0zNi44YzMuMjYtMS44NSA1LjI2LTUuMzIgNS4yNC05LjA3di04OS44M2wyNi45MyAxNS41NWMuMjkuMTQuNDguNDIuNTIuNzR2NzQuMzljLS4wNCAzMy4wOC0yNi44MyA1OS45LTU5LjkxIDU5Ljk3em0tMTI4Ljg0LTU1LjAzYy03LjAzLTEyLjE0LTkuNTYtMjYuMzctNy4xNS00MC4xOC40Ny4yOCAxLjMuNzkgMS44OSAxLjEzbDYzLjcyIDM2LjhjMy4yMyAxLjg5IDcuMjMgMS44OSAxMC40NyAwbDc3Ljc5LTQ0LjkydjMxLjFjLjAyLjMyLS4xMy42My0uMzguODNsLTY0LjQxIDM3LjE5Yy0yOC42OSAxNi41Mi02NS4zMyA2LjctODEuOTItMjEuOTV6bS0xNi43Ny0xMzkuMDljNy0xMi4xNiAxOC4wNS0yMS40NiAzMS4yMS0yNi4yOSAwIC41NS0uMDMgMS41Mi0uMDMgMi4ydjczLjYxYy0uMDIgMy43NCAxLjk4IDcuMjEgNS4yMyA5LjA2bDc3Ljc5IDQ0LjkxLTI2LjkzIDE1LjU1Yy0uMjcuMTgtLjYxLjIxLS45MS4wOGwtNjQuNDItMzcuMjJjLTI4LjYzLTE2LjU4LTM4LjQ1LTUzLjIxLTIxLjk1LTgxLjg5em0yMjEuMjYgNTEuNDktNzcuNzktNDQuOTIgMjYuOTMtMTUuNTRjLjI3LS4xOC42MS0uMjEuOTEtLjA4bDY0LjQyIDM3LjE5YzI4LjY4IDE2LjU3IDM4LjUxIDUzLjI2IDIxLjk0IDgxLjk0LTcuMDEgMTIuMTQtMTguMDUgMjEuNDQtMzEuMiAyNi4yOHYtNzUuODFjLjAzLTMuNzQtMS45Ni03LjItNS4yLTkuMDZ6bTI2LjgtNDAuMzRjLS40Ny0uMjktMS4zLS43OS0xLjg5LTEuMTNsLTYzLjcyLTM2LjhjLTMuMjMtMS44OS03LjIzLTEuODktMTAuNDcgMGwtNzcuNzkgNDQuOTJ2LTMxLjFjLS4wMi0uMzIuMTMtLjYzLjM4LS44M2w2NC40MS0zNy4xNmMyOC42OS0xNi41NSA2NS4zNy02LjcgODEuOTEgMjIgNi45OSAxMi4xMiA5LjUyIDI2LjMxIDcuMTUgNDAuMXptLTE2OC41MSA1NS40My0yNi45NC0xNS41NWMtLjI5LS4xNC0uNDgtLjQyLS41Mi0uNzR2LTc0LjM5Yy4wMi0zMy4xMiAyNi44OS01OS45NiA2MC4wMS01OS45NCAxNC4wMSAwIDI3LjU3IDQuOTIgMzguMzQgMTMuODgtLjQ5LjI2LTEuMzMuNzMtMS44OSAxLjA3bC02My43MiAzNi44Yy0zLjI2IDEuODUtNS4yNiA1LjMxLTUuMjQgOS4wNmwtLjA0IDg5Ljc5em0xNC42My0zMS41NCAzNC42NS0yMC4wMSAzNC42NSAyMHY0MC4wMWwtMzQuNjUgMjAtMzQuNjUtMjB6Ii8+PC9zdmc+;" parent="1" vertex="1">
          <mxGeometry x="200" y="-210" width="163" height="44.2" as="geometry" />
        </mxCell>
        <mxCell id="RZRtz3mMcXhG3yzxKx-j-1" value="SQL databases&lt;div&gt;(such as RDS, self-hosted)&lt;/div&gt;" style="sketch=0;outlineConnect=0;fontColor=#232F3E;gradientColor=none;fillColor=#C925D1;strokeColor=none;dashed=0;verticalLabelPosition=bottom;verticalAlign=top;align=center;html=1;fontSize=12;fontStyle=0;aspect=fixed;pointerEvents=1;shape=mxgraph.aws4.rds_instance;" parent="1" vertex="1">
          <mxGeometry x="600" y="-120" width="78" height="78" as="geometry" />
        </mxCell>
        <mxCell id="RZRtz3mMcXhG3yzxKx-j-2" value="Athena" style="sketch=0;points=[[0,0,0],[0.25,0,0],[0.5,0,0],[0.75,0,0],[1,0,0],[0,1,0],[0.25,1,0],[0.5,1,0],[0.75,1,0],[1,1,0],[0,0.25,0],[0,0.5,0],[0,0.75,0],[1,0.25,0],[1,0.5,0],[1,0.75,0]];outlineConnect=0;fontColor=#232F3E;fillColor=#8C4FFF;strokeColor=#ffffff;dashed=0;verticalLabelPosition=bottom;verticalAlign=top;align=center;html=1;fontSize=12;fontStyle=0;aspect=fixed;shape=mxgraph.aws4.resourceIcon;resIcon=mxgraph.aws4.athena;" parent="1" vertex="1">
          <mxGeometry x="720" y="-120" width="78" height="78" as="geometry" />
        </mxCell>
        <mxCell id="RZRtz3mMcXhG3yzxKx-j-3" value="Redshift" style="sketch=0;points=[[0,0,0],[0.25,0,0],[0.5,0,0],[0.75,0,0],[1,0,0],[0,1,0],[0.25,1,0],[0.5,1,0],[0.75,1,0],[1,1,0],[0,0.25,0],[0,0.5,0],[0,0.75,0],[1,0.25,0],[1,0.5,0],[1,0.75,0]];outlineConnect=0;fontColor=#232F3E;fillColor=#8C4FFF;strokeColor=#ffffff;dashed=0;verticalLabelPosition=bottom;verticalAlign=top;align=center;html=1;fontSize=12;fontStyle=0;aspect=fixed;shape=mxgraph.aws4.resourceIcon;resIcon=mxgraph.aws4.redshift;" parent="1" vertex="1">
          <mxGeometry x="840" y="-120" width="78" height="78" as="geometry" />
        </mxCell>
        <mxCell id="RZRtz3mMcXhG3yzxKx-j-4" style="edgeStyle=orthogonalEdgeStyle;rounded=0;orthogonalLoop=1;jettySize=auto;html=1;" parent="1" source="aVuCtGiwYys72nsZY7OP-1" target="RZRtz3mMcXhG3yzxKx-j-1" edge="1">
          <mxGeometry relative="1" as="geometry" />
        </mxCell>
        <mxCell id="RZRtz3mMcXhG3yzxKx-j-5" style="edgeStyle=orthogonalEdgeStyle;rounded=0;orthogonalLoop=1;jettySize=auto;html=1;" parent="1" source="aVuCtGiwYys72nsZY7OP-1" target="RZRtz3mMcXhG3yzxKx-j-2" edge="1">
          <mxGeometry relative="1" as="geometry" />
        </mxCell>
        <mxCell id="RZRtz3mMcXhG3yzxKx-j-6" style="edgeStyle=orthogonalEdgeStyle;rounded=0;orthogonalLoop=1;jettySize=auto;html=1;" parent="1" source="aVuCtGiwYys72nsZY7OP-1" target="RZRtz3mMcXhG3yzxKx-j-3" edge="1">
          <mxGeometry relative="1" as="geometry" />
        </mxCell>
        <mxCell id="jFujj-T0JA9L9DrS1JL_-18" value="Internal" style="" parent="0" />
        <mxCell id="jFujj-T0JA9L9DrS1JL_-15" value="WOG" style="" parent="0" />
      </root>
    </mxGraphModel>
  </diagram>
</mxfile>
